<svg xmlns="http://www.w3.org/2000/svg" version="1.1" xmlns:xlink="http://www.w3.org/1999/xlink" viewBox="0 0 200 200"><rect width="200" height="200" fill="url('#gradient')"></rect><defs><linearGradient id="gradient" gradientTransform="rotate(214 0.5 0.5)"><stop offset="0%" stop-color="#a7d0cb"></stop><stop offset="100%" stop-color="#deefe6"></stop></linearGradient></defs><g><g fill="#3a5d9d" transform="matrix(2.922393384141398,0,0,2.922393384141398,8.863639217217894,120.77759221791254)" stroke="#243a54" stroke-width="0.55"><path d="M1.07-14.22L5.58-14.22L8.75-4.33L11.91-14.22L16.43-14.22L16.43 0L12.99 0L12.99-3.32L13.32-10.12L9.88 0L7.62 0L4.17-10.13L4.50-3.32L4.50 0L1.07 0L1.07-14.22ZM27.69 0L26.86-2.66L22.16-2.66L21.34 0L17.68 0L22.89-14.22L26.11-14.22L31.37 0L27.69 0ZM24.50-10.23L22.98-5.30L26.04-5.30L24.50-10.23ZM40.20 0L37.69-5.02L35.83-5.02L35.83 0L32.40 0L32.40-14.22L38.00-14.22Q40.53-14.22 41.95-13.10Q43.38-11.97 43.38-9.92L43.38-9.92Q43.38-8.44 42.78-7.46Q42.18-6.48 40.90-5.88L40.90-5.88L43.87-0.15L43.87 0L40.20 0ZM35.83-11.57L35.83-7.67L38.00-7.67Q38.97-7.67 39.47-8.18Q39.96-8.69 39.96-9.61Q39.96-10.53 39.46-11.05Q38.96-11.57 38.00-11.57L38.00-11.57L35.83-11.57ZM49.10-14.22L49.10 0L45.68 0L45.68-14.22L49.10-14.22ZM60.30-8.57L60.30-6.03L54.91-6.03L54.91-2.64L61.28-2.64L61.28 0L51.48 0L51.48-14.22L61.30-14.22L61.30-11.57L54.91-11.57L54.91-8.57L60.30-8.57Z"></path></g></g></svg>